<svg width="16" height="9" viewBox="0 0 16 9" fill="none" xmlns="http://www.w3.org/2000/svg">
<path d="M5.333 3.333H3.333V1.333H2V3.333H0V4.666H2V6.666H3.333V4.666H5.333V3.333ZM12 4C12.2882 3.99939 12.573 3.93648 12.8346 3.81558C13.0963 3.69468 13.3287 3.51865 13.516 3.29954C13.7033 3.08043 13.8411 2.82342 13.9198 2.54613C13.9985 2.26883 14.0163 1.9778 13.9721 1.69296C13.9278 1.40813 13.8225 1.13623 13.6634 0.895886C13.5042 0.655541 13.295 0.452434 13.0501 0.300479C12.8052 0.148524 12.5303 0.0513111 12.2442 0.0155002C11.9582 -0.0203107 11.6678 0.00612645 11.393 0.093001C11.786 0.651044 11.9956 1.31749 11.993 2C11.9915 2.68188 11.7822 3.3471 11.393 3.907C11.5893 3.96917 11.7941 4.00055 12 4ZM8.667 4C9.06256 4 9.44924 3.8827 9.77814 3.66294C10.107 3.44318 10.3634 3.13082 10.5148 2.76537C10.6661 2.39992 10.7057 1.99778 10.6286 1.60982C10.5514 1.22186 10.3609 0.865493 10.0812 0.585788C9.80151 0.306083 9.44514 0.115601 9.05718 0.0384303C8.66922 -0.0387401 8.26709 0.000866562 7.90163 0.152242C7.53618 0.303617 7.22382 0.559963 7.00406 0.888861C6.7843 1.21776 6.667 1.60444 6.667 2C6.66594 2.26294 6.71695 2.52349 6.81709 2.76662C6.91722 3.00975 7.0645 3.23065 7.25043 3.41657C7.43636 3.6025 7.65725 3.74978 7.90038 3.84992C8.14351 3.95005 8.40406 4.00106 8.667 4ZM13.08 5.44C13.3635 5.66816 13.5929 5.95619 13.752 6.28347C13.9111 6.61074 13.9957 6.96915 14 7.333V8.666H16V7.333C16 6.307 14.42 5.673 13.08 5.44ZM8.667 5.333C7.334 5.333 4.667 6 4.667 7.333V8.666H12.667V7.333C12.667 6 10 5.333 8.667 5.333Z" fill="white"/>
</svg>
