<svg width="18" height="21" viewBox="0 0 18 21" fill="none" xmlns="http://www.w3.org/2000/svg">
<path d="M16.071 9H15.107V6.107C15.107 4.48732 14.4636 2.93398 13.3183 1.7887C12.173 0.643414 10.6197 0 9 0C7.38032 0 5.82698 0.643414 4.6817 1.7887C3.53641 2.93398 2.893 4.48732 2.893 6.107V9H1.929C1.4174 9 0.926749 9.20323 0.564991 9.56499C0.203233 9.92675 0 10.4174 0 10.929V18.643C0 19.1546 0.203233 19.6453 0.564991 20.007C0.926749 20.3688 1.4174 20.572 1.929 20.572H16.071C16.5826 20.572 17.0733 20.3688 17.435 20.007C17.7968 19.6453 18 19.1546 18 18.643V10.929C18 10.4174 17.7968 9.92675 17.435 9.56499C17.0733 9.20323 16.5826 9 16.071 9ZM11.893 9H6.107V6.107C6.107 5.33973 6.4118 4.60388 6.95434 4.06134C7.49688 3.5188 8.23273 3.214 9 3.214C9.76727 3.214 10.5031 3.5188 11.0457 4.06134C11.5882 4.60388 11.893 5.33973 11.893 6.107V9Z" fill="white"/>
</svg>
