<svg width="20" height="20" viewBox="0 0 20 20" fill="none" xmlns="http://www.w3.org/2000/svg">
<path d="M18 3.05176e-05H2C1.4713 0.00267404 0.965159 0.214554 0.592247 0.589341C0.219334 0.964127 0.00999338 1.47133 0.00999999 2.00003L0 20L4 16H18C18.5299 15.9984 19.0377 15.7872 19.4125 15.4125C19.7872 15.0378 19.9984 14.53 20 14V2.00003C19.9984 1.47008 19.7872 0.962296 19.4125 0.587565C19.0377 0.212835 18.5299 0.00161324 18 3.05176e-05ZM16 12H4V10H16V12ZM16 9.00003H4V7.00003H16V9.00003ZM16 6.00003H4V4.00003H16V6.00003Z" fill="#5A5A5A"/>
</svg>
