<svg width="16" height="18" viewBox="0 0 16 18" fill="none" xmlns="http://www.w3.org/2000/svg">
<path d="M15.782 14.835L12.667 11.72C12.5973 11.6504 12.5145 11.5952 12.4233 11.5576C12.3322 11.52 12.2346 11.5008 12.136 11.501H11.627C12.6462 10.1972 13.1297 8.55379 12.979 6.90581C12.8282 5.25782 12.0546 3.72938 10.8158 2.63213C9.57702 1.53487 7.96636 0.951427 6.31223 1.00075C4.65811 1.05008 3.08508 1.72847 1.91387 2.89759C0.742671 4.06672 0.0614929 5.63854 0.00922722 7.29258C-0.0430385 8.94661 0.537544 10.5583 1.6326 11.799C2.72765 13.0398 4.25471 13.8161 5.90243 13.9698C7.55014 14.1234 9.19442 13.6429 10.5 12.626V13.135C10.4998 13.2336 10.519 13.3312 10.5566 13.4223C10.5942 13.5134 10.6494 13.5963 10.719 13.666L13.835 16.782C13.9044 16.8518 13.9869 16.9071 14.0778 16.9449C14.1687 16.9826 14.2661 17.0021 14.3645 17.0021C14.4629 17.0021 14.5604 16.9826 14.6512 16.9449C14.7421 16.9071 14.8246 16.8518 14.894 16.782L15.778 15.898C15.9184 15.7567 15.9972 15.5657 15.9972 15.3665C15.9972 15.1673 15.9184 14.9763 15.778 14.835H15.782ZM6.50001 11.5C5.70889 11.5 4.93553 11.2654 4.27773 10.8259C3.61994 10.3864 3.10725 9.76164 2.8045 9.03073C2.50174 8.29983 2.42253 7.49556 2.57687 6.71964C2.73121 5.94371 3.11218 5.23098 3.67159 4.67157C4.231 4.11216 4.94373 3.7312 5.71965 3.57686C6.49558 3.42252 7.29984 3.50173 8.03075 3.80448C8.76165 4.10723 9.38637 4.61992 9.82589 5.27772C10.2654 5.93551 10.5 6.70887 10.5 7.5C10.5 8.56086 10.0786 9.57828 9.32844 10.3284C8.57829 11.0786 7.56088 11.5 6.50001 11.5Z" fill="white"/>
</svg>
