<svg width="16" height="19" viewBox="0 0 16 19" fill="none" xmlns="http://www.w3.org/2000/svg">
<path d="M1.143 16.571C1.143 17.0256 1.32358 17.4615 1.64502 17.783C1.96646 18.1044 2.40242 18.285 2.857 18.285H13.143C13.5976 18.285 14.0335 18.1044 14.355 17.783C14.6764 17.4615 14.857 17.0256 14.857 16.571V4.57101H1.143V16.571ZM10.857 7.42801C10.857 7.27643 10.9172 7.13107 11.0244 7.02389C11.1316 6.91672 11.2769 6.85651 11.4285 6.85651C11.5801 6.85651 11.7254 6.91672 11.8326 7.02389C11.9398 7.13107 12 7.27643 12 7.42801V15.428C12 15.5796 11.9398 15.7249 11.8326 15.8321C11.7254 15.9393 11.5801 15.9995 11.4285 15.9995C11.2769 15.9995 11.1316 15.9393 11.0244 15.8321C10.9172 15.7249 10.857 15.5796 10.857 15.428V7.42801ZM7.428 7.42801C7.428 7.27643 7.48821 7.13107 7.59539 7.02389C7.70257 6.91672 7.84793 6.85651 7.9995 6.85651C8.15107 6.85651 8.29643 6.91672 8.40361 7.02389C8.51079 7.13107 8.571 7.27643 8.571 7.42801V15.428C8.571 15.5796 8.51079 15.7249 8.40361 15.8321C8.29643 15.9393 8.15107 15.9995 7.9995 15.9995C7.84793 15.9995 7.70257 15.9393 7.59539 15.8321C7.48821 15.7249 7.428 15.5796 7.428 15.428V7.42801ZM4 7.42901C4 7.27743 4.06021 7.13207 4.16739 7.02489C4.27457 6.91772 4.41993 6.85751 4.5715 6.85751C4.72307 6.85751 4.86843 6.91772 4.97561 7.02489C5.08279 7.13207 5.143 7.27743 5.143 7.42901V15.429C5.143 15.5806 5.08279 15.7259 4.97561 15.8331C4.86843 15.9403 4.72307 16.0005 4.5715 16.0005C4.41993 16.0005 4.27457 15.9403 4.16739 15.8331C4.06021 15.7259 4 15.5806 4 15.429V7.42901ZM15.429 1.14301H11.143L10.807 0.475006C10.7359 0.332193 10.6263 0.212065 10.4906 0.128146C10.355 0.0442268 10.1985 -0.000151953 10.039 5.5309e-06H5.957C5.79789 -0.000569351 5.64184 0.0436816 5.50672 0.12769C5.3716 0.211698 5.26288 0.332065 5.193 0.475006L4.857 1.14301H0.571C0.419561 1.14301 0.274325 1.20316 0.167242 1.31025C0.0601588 1.41733 0 1.56257 0 1.71401L0 2.85701C0 3.00844 0.0601588 3.15368 0.167242 3.26076C0.274325 3.36785 0.419561 3.42801 0.571 3.42801H15.429C15.5804 3.42801 15.7257 3.36785 15.8328 3.26076C15.9398 3.15368 16 3.00844 16 2.85701V1.71401C16 1.56257 15.9398 1.41733 15.8328 1.31025C15.7257 1.20316 15.5804 1.14301 15.429 1.14301Z" fill="#EC6262"/>
</svg>
