<svg width="16" height="16" viewBox="0 0 16 16" fill="none" xmlns="http://www.w3.org/2000/svg">
<path d="M8 9C8.89002 9 9.76005 8.73608 10.5001 8.24162C11.2401 7.74715 11.8169 7.04434 12.1575 6.22208C12.4981 5.39981 12.5872 4.49501 12.4135 3.6221C12.2399 2.74918 11.8113 1.94736 11.182 1.31802C10.5526 0.688685 9.75082 0.260102 8.87791 0.0864683C8.00499 -0.0871652 7.10019 0.00194979 6.27792 0.342544C5.45566 0.683138 4.75285 1.25991 4.25839 1.99994C3.76392 2.73996 3.5 3.60999 3.5 4.5C3.5 5.69348 3.97411 6.83807 4.81802 7.68198C5.66193 8.5259 6.80653 9 8 9ZM12 10H10.278C9.56374 10.3294 8.78655 10.4999 8 10.4999C7.21345 10.4999 6.43626 10.3294 5.722 10H4C2.93913 10 1.92172 10.4214 1.17157 11.1716C0.421427 11.9217 0 12.9391 0 14L0 14.5C0 14.8978 0.158035 15.2794 0.43934 15.5607C0.720644 15.842 1.10218 16 1.5 16H14.5C14.8978 16 15.2794 15.842 15.5607 15.5607C15.842 15.2794 16 14.8978 16 14.5V14C16 12.9391 15.5786 11.9217 14.8284 11.1716C14.0783 10.4214 13.0609 10 12 10Z" fill="white"/>
</svg>
