<svg width="20" height="16" viewBox="0 0 20 16" fill="none" xmlns="http://www.w3.org/2000/svg">
<path d="M7 8C7.79113 8 8.56448 7.76541 9.22228 7.32588C9.88008 6.88635 10.3928 6.26164 10.6955 5.53074C10.9983 4.79983 11.0775 3.99556 10.9231 3.21964C10.7688 2.44372 10.3878 1.73098 9.82843 1.17157C9.26902 0.612165 8.55628 0.231202 7.78036 0.0768607C7.00444 -0.0774802 6.20017 0.00173312 5.46927 0.304484C4.73836 0.607234 4.11365 1.11992 3.67412 1.77772C3.2346 2.43552 3 3.20888 3 4C3 5.06087 3.42143 6.07828 4.17157 6.82843C4.92172 7.57857 5.93913 8 7 8ZM9.8 9H9.278C8.56374 9.32937 7.78655 9.49993 7 9.49993C6.21345 9.49993 5.43626 9.32937 4.722 9H4.2C3.08609 9 2.0178 9.4425 1.23015 10.2302C0.442499 11.0178 0 12.0861 0 13.2L0 14.5C0 14.8978 0.158035 15.2794 0.43934 15.5607C0.720644 15.842 1.10218 16 1.5 16H10.091C10.0141 15.787 9.98637 15.5593 10.01 15.334L10.223 13.434L10.261 13.087L10.508 12.84L12.924 10.424C12.5347 9.97785 12.0546 9.62001 11.5159 9.37443C10.9771 9.12884 10.3921 9.00119 9.8 9ZM11.216 13.541L11 15.447C10.9921 15.5212 11.0009 15.5961 11.0258 15.6664C11.0507 15.7368 11.0909 15.8006 11.1437 15.8534C11.1964 15.9061 11.2602 15.9464 11.3306 15.9712C11.4009 15.9961 11.4758 16.0049 11.55 15.997L13.45 15.784L17.76 11.474L15.526 9.235L11.216 13.541ZM19.782 8.4L18.6 7.219C18.4597 7.07953 18.2699 7.00124 18.072 7.00124C17.8741 7.00124 17.6843 7.07953 17.544 7.219L16.36 8.4L16.232 8.528L18.476 10.769L19.782 9.463C19.9214 9.32203 19.9996 9.13177 19.9996 8.9335C19.9996 8.73524 19.9214 8.54497 19.782 8.404V8.4Z" fill="white"/>
</svg>
